<?xml version="1.0" encoding="utf-8"?>
<!-- Generator: Adobe Illustrator 16.0.0, SVG Export Plug-In . SVG Version: 6.00 Build 0)  -->
<!DOCTYPE svg PUBLIC "-//W3C//DTD SVG 1.1//EN" "http://www.w3.org/Graphics/SVG/1.1/DTD/svg11.dtd">
<svg version="1.1" id="Isolation_Mode" xmlns="http://www.w3.org/2000/svg" xmlns:xlink="http://www.w3.org/1999/xlink" x="0px"
	 y="0px" width="250px" height="250px" viewBox="0 0 250 250" enable-background="new 0 0 250 250" xml:space="preserve">
<g>
	<circle fill="#1095BD" cx="125" cy="125.77" r="76.491"/>
	<path fill="#FFFFFF" d="M131.068,120.86c0.001,0,0.003,0,0.005,0.001c9.936-2.673,17.249-11.742,17.249-22.521
		c0-12.88-10.441-23.322-23.322-23.322c-12.88,0-23.322,10.441-23.322,23.322c0,10.779,7.314,19.849,17.249,22.521
		c0.001,0,0.003,0,0.005-0.001c-16.943,2.771-29.844,16.945-29.844,34.015c0,3.811,0.644,7.476,1.831,10.903h68.16
		c1.188-3.428,1.832-7.093,1.832-10.903C160.912,137.805,148.012,123.631,131.068,120.86z"/>
	<g>
		<g>
			<g>
				<path fill="#3776B3" d="M185.9,195.021h16.076c-1.104,1.214-2.233,2.404-3.393,3.563c-4.713,4.713-9.898,8.991-15.412,12.717
					c-5.563,3.758-11.508,6.984-17.671,9.592c-12.818,5.422-26.445,8.171-40.501,8.171s-27.682-2.749-40.501-8.171
					c-6.163-2.607-12.108-5.834-17.67-9.592c-5.514-3.726-10.7-8.004-15.413-12.717s-8.991-9.898-12.717-15.412
					c-3.757-5.563-6.985-11.508-9.591-17.671c-5.422-12.819-8.171-26.445-8.171-40.501c0-2.577,0.094-5.138,0.278-7.684H5.242
					C5.082,119.857,5,122.419,5,125c0,66.274,53.726,120,120,120c35.521,0,66.861-15.085,88.693-39.125v17.08h15.936v-27.935
					v-15.794v-0.142H185.9V195.021z"/>
			</g>
			<g>
				<path fill="#3776B3" d="M125,5C89.085,5,56.856,20.779,34.864,45.782V29.379H18.929v27.935v15.794v0.142h43.729V57.313H45.961
					c1.745-2.035,3.563-4.005,5.455-5.897c4.713-4.713,9.898-8.991,15.413-12.716c5.562-3.758,11.507-6.985,17.67-9.592
					c12.819-5.422,26.445-8.171,40.501-8.171s27.683,2.75,40.501,8.171c6.163,2.606,12.108,5.834,17.671,9.592
					c5.514,3.725,10.699,8.003,15.412,12.716s8.991,9.898,12.716,15.413c3.759,5.562,6.985,11.507,9.592,17.67
					c5.423,12.819,8.172,26.446,8.172,40.501c0,2.357-0.079,4.702-0.233,7.033h15.965C244.93,129.706,245,127.361,245,125
					C245,58.726,191.274,5,125,5z"/>
			</g>
		</g>
	</g>
</g>
</svg>
